<?xml version="1.0" encoding="utf-8"?>
<!-- Generator: Adobe Illustrator 25.4.1, SVG Export Plug-In . SVG Version: 6.00 Build 0)  -->
<svg version="1.1" id="Layer_1" xmlns="http://www.w3.org/2000/svg" xmlns:xlink="http://www.w3.org/1999/xlink" x="0px" y="0px"
	 viewBox="0 0 153 147" style="enable-background:new 0 0 153 147;" xml:space="preserve">
<style type="text/css">
	.st0{clip-path:url(#SVGID_00000178168752010722594430000016949577193176624279_);}
	.st1{fill:#05825F;}
	.st2{fill:#3596F7;}
	.st3{fill:#7047EE;}
	.st4{fill:#FFA800;}
	.st5{fill:#172B4C;}
	.st6{fill:#EE3158;}
</style>
<g>
	<defs>
		<rect id="SVGID_1_" x="-19" y="-22" width="172" height="169"/>
	</defs>
	<clipPath id="SVGID_00000001625922434227288850000014017370389204463534_">
		<use xlink:href="#SVGID_1_"  style="overflow:visible;"/>
	</clipPath>
	<g style="clip-path:url(#SVGID_00000001625922434227288850000014017370389204463534_);">
		<path class="st1" d="M9.7,90.7c15.8,0,28.7,12.6,28.7,28.2c0,15.6-12.8,28.2-28.7,28.2C-6.2,147-19,134.4-19,118.8
			C-19,103.3-6.2,90.7,9.7,90.7z"/>
		<path class="st2" d="M41.9,27.3c13.9,0,25.1,11,25.1,24.6c0,13.6-11.2,24.6-25.1,24.6c-13.9,0-25.1-11-25.1-24.6
			C16.8,38.3,28.1,27.3,41.9,27.3z"/>
		<path class="st3" d="M110,62.5c23.7,0,43,18.9,43,42.2c0,23.3-19.3,42.3-43,42.3c-23.7,0-43-18.9-43-42.3
			C67,81.4,86.3,62.5,110,62.5z"/>
		<path class="st4" d="M117.2-22C137-22,153-6.2,153,13.2c0,19.4-16,35.2-35.8,35.2c-19.8,0-35.8-15.8-35.8-35.2
			C81.3-6.2,97.4-22,117.2-22z"/>
		<path class="st3" d="M2.5-22C14.4-22,24-12.5,24-0.9c0,11.7-9.6,21.1-21.5,21.1C-9.4,20.2-19,10.8-19-0.9C-19-12.5-9.4-22,2.5-22z
			"/>
		<path class="st5" d="M-4.7,62.5c4,0,7.2,3.2,7.2,7c0,3.9-3.2,7-7.2,7c-4,0-7.2-3.2-7.2-7C-11.8,65.7-8.6,62.5-4.7,62.5z"/>
		<path class="st6" d="M52.7-7.9c5.9,0,10.7,4.7,10.7,10.6c0,5.8-4.8,10.6-10.7,10.6c-5.9,0-10.8-4.7-10.8-10.6
			C41.9-3.2,46.7-7.9,52.7-7.9z"/>
	</g>
</g>
</svg>
