<?xml version="1.0" encoding="utf-8"?>
<!-- Generator: Adobe Illustrator 25.4.1, SVG Export Plug-In . SVG Version: 6.00 Build 0)  -->
<svg version="1.1" id="Layer_1" xmlns="http://www.w3.org/2000/svg" xmlns:xlink="http://www.w3.org/1999/xlink" x="0px" y="0px"
	 viewBox="0 0 153 147" style="enable-background:new 0 0 153 147;" xml:space="preserve">
<style type="text/css">
	.st0{clip-path:url(#SVGID_00000151512179864354453790000002528892785477036200_);}
	.st1{fill:#05825F;}
	.st2{fill:#3596F7;}
	.st3{fill:#7047EE;}
	.st4{fill:#FFA800;}
	.st5{fill:#172B4C;}
	.st6{fill:#EE3158;}
</style>
<g>
	<defs>
		<rect id="SVGID_1_" y="-22" width="172" height="169"/>
	</defs>
	<clipPath id="SVGID_00000028322668777908067050000015182416549069510313_">
		<use xlink:href="#SVGID_1_"  style="overflow:visible;"/>
	</clipPath>
	<g style="clip-path:url(#SVGID_00000028322668777908067050000015182416549069510313_);">
		<path class="st1" d="M172,118.8c0,15.6-12.8,28.2-28.7,28.2c-15.8,0-28.7-12.6-28.7-28.2c0-15.6,12.8-28.2,28.7-28.2
			C159.2,90.7,172,103.3,172,118.8z"/>
		<path class="st2" d="M136.2,51.9c0,13.6-11.2,24.6-25.1,24.6c-13.9,0-25.1-11-25.1-24.6c0-13.6,11.2-24.6,25.1-24.6
			C124.9,27.3,136.2,38.3,136.2,51.9z"/>
		<path class="st3" d="M86,104.7c0,23.3-19.3,42.3-43,42.3c-23.7,0-43-18.9-43-42.3c0-23.3,19.3-42.2,43-42.2
			C66.7,62.5,86,81.4,86,104.7z"/>
		<path class="st4" d="M71.7,13.2c0,19.4-16,35.2-35.8,35.2C16,48.4,0,32.7,0,13.2C0-6.2,16-22,35.8-22C55.6-22,71.7-6.2,71.7,13.2z
			"/>
		<path class="st3" d="M172-0.9c0,11.7-9.6,21.1-21.5,21.1c-11.9,0-21.5-9.5-21.5-21.1c0-11.7,9.6-21.1,21.5-21.1
			C162.4-22,172-12.5,172-0.9z"/>
		<path class="st5" d="M164.8,69.5c0,3.9-3.2,7-7.2,7c-4,0-7.2-3.2-7.2-7c0-3.9,3.2-7,7.2-7C161.6,62.5,164.8,65.7,164.8,69.5z"/>
		<path class="st6" d="M111.1,2.6c0,5.8-4.8,10.6-10.8,10.6c-5.9,0-10.7-4.7-10.7-10.6c0-5.8,4.8-10.6,10.7-10.6
			C106.3-7.9,111.1-3.2,111.1,2.6z"/>
	</g>
</g>
</svg>
