<?xml version="1.0" encoding="utf-8"?>
<!-- Generator: Adobe Illustrator 25.4.1, SVG Export Plug-In . SVG Version: 6.00 Build 0)  -->
<svg version="1.1" id="Layer_1" xmlns="http://www.w3.org/2000/svg" xmlns:xlink="http://www.w3.org/1999/xlink" x="0px" y="0px"
	 viewBox="0 0 150 150" style="enable-background:new 0 0 150 150;" xml:space="preserve">
<style type="text/css">
	.st0{fill:#FFFFFF;}
</style>
<g>
	<path class="st0" d="M136.6,123.3c1.2,1.2,1.2,3.2,0,4.4l-8.8,8.8c-1.2,1.2-3.2,1.2-4.4,0l-8.3-8.3L75,88.3l-48.3,48.3
		c-1.2,1.2-3.2,1.2-4.4,0l-8.8-8.8c-1.2-1.2-1.2-3.2,0-4.4L61.7,75L13.4,26.7c-1.2-1.2-1.2-3.2,0-4.4l8.8-8.8c1.2-1.2,3.2-1.2,4.4,0
		L75,61.7l48.3-48.3c1.2-1.2,3.2-1.2,4.4,0l8.8,8.8c1.2,1.2,1.2,3.2,0,4.4l-8.3,8.3L88.3,75L136.6,123.3z"/>
</g>
</svg>
